<?xml version="1.0" encoding="utf-8"?>
<!-- Generator: Adobe Illustrator 22.0.1, SVG Export Plug-In . SVG Version: 6.00 Build 0)  -->
<svg version="1.1" id="Laag_1" xmlns="http://www.w3.org/2000/svg" xmlns:xlink="http://www.w3.org/1999/xlink" x="0px" y="0px"
	 viewBox="0 0 213.4 43.4" style="enable-background:new 0 0 213.4 43.4;" xml:space="preserve">
<style type="text/css">
	.st0{fill:#010202;}
</style>
<path class="st0" d="M16.8,43.4c4.4,0,8.4-1.1,11.3-3c3.6-2.4,5.5-6.1,5.5-10.8c0-8.3-6-10.7-11.2-12h0l-4.7-1.1
	c-4.4-1.1-6.9-1.8-6.9-4.4c0-2.6,3.2-3.8,6.3-3.8c4.4,0,7.6,1.9,9.3,5.2l0.4,0.7l6.7-5.5l-0.4-0.5C29.3,2.8,23.9,0,17.2,0
	C9.8,0,2.3,4.5,2.3,13.2c0,3.6,1.2,6.3,3.6,8.3c2.3,1.9,5.5,2.9,8,3.5l4.1,1c4.9,1.2,7.1,2.1,7.1,4.6c0,4.3-6.4,4.4-7.2,4.4
	c-4.6,0-8.2-2-10.6-5.8l-0.4-0.6L0,34.1l0.3,0.5C3.7,40,10.1,43.4,16.8,43.4z"/>
<polygon class="st0" points="38.8,0.7 38.8,8.7 50.3,8.7 50.3,42.5 58.8,42.5 58.8,8.7 70.3,8.7 70.3,0.7 "/>
<rect x="86" y="17.4" class="st0" width="14.9" height="7.6"/>
<polygon class="st0" points="143.1,0.7 143.1,8.7 154.6,8.7 154.6,42.5 163.1,42.5 163.1,8.7 174.7,8.7 174.7,0.7 "/>
<rect x="112.5" y="17.4" class="st0" width="14.9" height="7.6"/>
<rect x="77.3" y="0.7" class="st0" width="25.3" height="8.3"/>
<g>
	<path class="st0" d="M196.6,43.4c4.4,0,8.4-1.1,11.3-3c3.6-2.4,5.5-6.1,5.5-10.8c0-8.3-6-10.7-11.2-12h0l-4.7-1.1
		c-4.4-1.1-6.9-1.8-6.9-4.4c0-2.6,3.2-3.8,6.3-3.8c4.4,0,7.6,1.9,9.3,5.2l0.4,0.7l6.7-5.5l-0.4-0.5C209.1,2.8,203.7,0,197,0
		c-7.4,0-14.9,4.5-14.9,13.2c0,3.6,1.2,6.3,3.6,8.3c2.3,1.9,5.5,2.9,8,3.5l4.1,1c4.9,1.2,7.1,2.1,7.1,4.6c0,4.3-6.4,4.4-7.2,4.4
		c-4.6,0-8.2-2-10.6-5.8l-0.4-0.6l-6.9,5.4l0.3,0.5C183.6,40,189.9,43.4,196.6,43.4z"/>
	<rect x="110.7" y="0.7" class="st0" width="25.3" height="8.3"/>
</g>
<rect x="110.7" y="34.2" class="st0" width="25.3" height="8.3"/>
<rect x="77.3" y="34.2" class="st0" width="25.3" height="8.3"/>
</svg>
